<svg xmlns="http://www.w3.org/2000/svg" xmlns:xlink="http://www.w3.org/1999/xlink" viewBox="0 0 2048 1491.67"><defs><style>.cls-1{fill:url(#Безымянный_градиент_189);}.cls-2{fill:#470f2e;}.cls-3{fill:#2b012d;}.cls-4{fill:#2b002d;}.cls-5{fill:#2a012d;}.cls-6{fill:#5e1e31;}.cls-7{fill:#38082c;}</style><linearGradient id="Безымянный_градиент_189" x1="1024.25" y1="1255.38" x2="1024.25" y2="3303.38" gradientUnits="userSpaceOnUse"><stop offset="0" stop-color="#b94e3e"/><stop offset="0.02" stop-color="#9a3c3b"/><stop offset="0.04" stop-color="#6b2137"/><stop offset="0.06" stop-color="#591635"/></linearGradient></defs><title>Слой 4</title><g id="Слой_2" data-name="Слой 2"><g id="Слой_4" data-name="Слой 4"><path class="cls-1" d="M2048.25,967.5v588.75H.25V1112.92l5.33-10.67s6.67-8.67,8.67-10.67,6-14,6-14,18-7.33,21.33-9.33,10.67-5.33,16-9.33,10-3.34,15.34-10,4-12,5.33-19.34a86.22,86.22,0,0,1,5.33-18c1.34-2.66,12-2,17.34-4s9.33-6.66,12-10.66,4.66-15.34,4.66-15.34,5.34,6.67,7.34,8,21.33,17.34,21.33,17.34l16,14,2,6c2,6,6.67,14.66,8.67,18.66a84.67,84.67,0,0,0,10,14c2,2,12.66,8,18,9.34s4,3.33,4,3.33,13.33-1.33,19.33-1.33h17.33s6.67-.67,11.34-3.34,10.66-3.33,16.66-6,6-9.33,6-9.33l3.34-8.67s7.33-1.33,9.33-1.33,8,6,12.67,6h14.66c2,0,9.34,13.33,9.34,13.33l6,4s12-8,16-10.56,14-7.44,19.33-10.1,20-9.67,20-9.67l2-3c2-3,3.5-5,5.5-6s3-2.5,6-6.5,2-6,3.5-8.5,5.5-9,5.5-9l3,2.5s3,5.5,3.5,7,4.5,3,6,3.5,3.5,7.5,3.5,7.5,6,2.5,9,2.5,8,4.5,11.5,6,8,7,8,7,14.5,4,23,4.5,9.5,3.5,9.5,3.5l4.5,3s9.5,4.5,12,5.77,4.5-2.27,10-3.27,12.5.5,12.5.5l3,6,6,6h13.5c2,0,15.5-.5,15.5-.5l7,2.5,12,6,3-3h9.5s6,5.5,11.5,5.5,9-1.5,13-3.5l1.78-.89.14-.07,1.08-.54a12.88,12.88,0,0,1,6.5-1.5c1.5,0,4,3.5,4,3.5l8.5,1a54.83,54.83,0,0,1,4-5,29.13,29.13,0,0,1,5.5-3.5s4-6,5-9.23,5.5-3.77,5.5-3.77l8-10.5,4.5,3.5,7,5,5,5.77,7.5,5.73,7.5,6s5.5,4,8,5,7.5,0,7.5,0l3.5,5s6.5,6,8,7,12.5,7.5,12.5,7.5l11.5,6.5,2-1c2-1,3-4.5,3-4.5l3.5,2.5s2,5,4,4,9.5-8,9.5-8l5,6.5a89.43,89.43,0,0,0,10.5,4.5c3.5,1,8.5,7.5,10,8s8,5,8,5,8-1.5,11-1.5,7,3,7,3,6.5-1.5,10-3.5,9.5-1.5,13-2,13-1.5,15.5-3,12-6,15.5-8.5,6-1.5,6-1.5,11,5.5,13,5.5,17.5,4,17.5,4L942,1108s5.25-1.25,6.5-2.5,3.75-7.75,4-8.5,5-.25,5.75-.75,3-2.25,3-2.25,4.5-8,6-9.25,10.25-6.25,11.25-7.25,1.75,11.5,1.75,11.5,14,8,15.25,9.25S997,1103,997,1103l7.75,5.75s15.25,9.5,16.75,10.5a50.82,50.82,0,0,0,5.75,2.75l8.75-.5,4.25,4,15.25,3.25s16.75,1.5,17.75,1.5,16,1.75,16,1.75,7,5,8,5.5,19.75,1,19.75,1,13-3.25,18.5-6,19-11,19-11,2,7.75,2,8.5,5.25,5.75,6,6.25,7.75,8.75,14.25,9.75,10.75,4.5,13.75,5.5,19.75,4.5,26.25,4,17.25-4.25,19.25-4.5,15-.25,19.25-1.25S1274,1146,1277,1144.5s24.5-14.75,26-18.5a107.83,107.83,0,0,0,3.75-10.75c1.25-4.25,2.25.75,5.5,0s4.5-2.25,5.75-4.75,5-10.25,6.5-12.5,15.75-19.75,16.5-20.75,3.5,3,3.5,3,1.5-2.75,2-3.5,7.75-15.75,9-18,10-15.5,10.75-17.75,16.5-23.5,16.5-24.25,5.75,8,5.75,8,6,7.25,7.25,8,10,5.75,11,6,6.75,8.25,8.75,8.5,10.25-1,12-1.5,8-3.25,8-3.25,5.5,4.75,7.25,5.25,7.5,4.5,7.5,4.5,8.25,4.25,11.75,5.25,10,3.5,12,3.5,23.25-1.75,24.5-2,10-1.5,12-2.25,7.75-2.25,10.25-3,6.5-5.25,9-7.5,10.75-3.5,12.25-3.5,7.5-4,8.5-6.49a14.73,14.73,0,0,1,3.75-4.76s6.5,5,7.75,4.75,8.25,0,8.25,0,5.5-2,11.5-4.5,12-6,14.5-9,9.5-12,12.5-14.5,14.5-11,14.5-11,11,4,16,4,7,5,10,5.5,17.75,1.5,17.75,1.5,11-5,13.25-6.75,18-9.75,18-9.75l6,2.75s3.75-3.5,4.25-4.25,11.25-6,12-6.25,7.25-9.25,9-11,4.5-7.5,6.25-10,9.75-8.5,9.75-8.5l7.5,11s6.5,9,9.25,10.25a15.07,15.07,0,0,1,5,4.5l11.5,13,8.25-.75s12.25-4,13.5-5.13,7,3.88,8,4.38,5.75,8,6.5,8.5,10.5,1.25,12,1.25,14.75,3.5,15.25,4.25,5.25,7.75,5.25,7.75,14-9,15.5-10,17.75-4.75,18.5-5.25,10.75-13,10.75-13L1903.5,994l10.5-5.5,10-5,13-14.25,8.5-8,8,6.25H1966c.75,0,15-3.75,15-3.75l11.25,3.31,21.75,4.19s20-2.75,20.75-3.75S2048.25,967.5,2048.25,967.5Z" transform="translate(-0.25 -64.58)"/><path class="cls-2" d="M2048.25,766.25v12l-18.5,1.67-66,2.33-48,1.5-71.5,3.5s-82,4-84.5,4-69,3-69,3l34-3s90-8,92-8,95-9,97-9,90-6.5,95.5-8S2048.25,766.25,2048.25,766.25Z" transform="translate(-0.25 -64.58)"/><path class="cls-3" d="M2048.25,475.58v20h-39.33l-89.67-2.66-109-5.67-100.67-8.67s-118.33-2.66-119.66-3-153.67-5-155-5-117-1.58-117-1.58l-126.67,4.25-172,2.33,133-6.58,95.67-1.42s78.33-3.66,81-4,93.33-2,93.33-2l102.67-2,143,2s117.66,3.67,120.66,3.67,121.34,5,121.34,5Z" transform="translate(-0.25 -64.58)"/><path class="cls-4" d="M2048.25,266.25v27.67h-38.67l-63-2h-63.66s-90.67-1.34-91.67-1.34-103.33,3.34-103.33,3.34l132.33-8.34,67.33-7s83-5.33,84-5.66,76.34-6.67,76.34-6.67Z" transform="translate(-0.25 -64.58)"/><path class="cls-5" d="M2048.25,80.58v20h-39.33l-89.67-2.66-109-5.67-100.67-8.67s-118.33-2.66-119.66-3-153.67-5-155-5-117-1.58-117-1.58l-126.67,4.25-172,2.33,133-6.58,95.67-1.42s78.33-3.66,81-4,93.33-2,93.33-2l102.67-2,143,2s117.66,3.67,120.66,3.67,121.34,5,121.34,5Z" transform="translate(-0.25 -64.58)"/><path class="cls-6" d="M1779.25,902.25l-50.33.67-41.34,4.77-54.66,5.23h-50l-102.67-1.34-66.67,4.67-94,5.33h-96l-115.33,2.67-145.88,8c4.9-.59,161.92-19.34,164.55-20.66s108.66-12.66,108.66-12.66l121.67-10.67,132-5.12h121l100,9.12Z" transform="translate(-0.25 -64.58)"/><path class="cls-5" d="M1460.25,427.25l-131,1-180,8.5-140,10.5-136,9-102,5-112.5,8.5s-97.5,7.5-99.5,8-136.5,10.5-136.5,10.5l-147.5,12.5-99.5,8.5s-122,11.5-123.5,11.5-52,4-52,4v-43.5l67-6,93.5-6.5,77.5-8,117-12,90-7.5,93-9.5,153-9.5,98.5-4,180-5h151l141,6.5,74.5,4.5Z" transform="translate(-0.25 -64.58)"/><path class="cls-5" d="M1343.52,145l-50.33.67-41.34,4.77-54.66,5.23h-50l-102.67-1.33L977.85,159l-94,5.34h-96L672.52,167l-145.88,8c4.9-.59,161.92-19.34,164.55-20.65s108.66-12.67,108.66-12.67L921.52,131l132-5.12h121l100,9.12Z" transform="translate(-0.25 -64.58)"/><path class="cls-5" d="M677.25,107.68l-125.5,3.5-179.5,17.5-117,16-105,12.5s-91.5,8.5-94,8.5H.25v-6l102-11,130.5-17,82.5-9,128.5-11,96-4Z" transform="translate(-0.25 -64.58)"/><path class="cls-7" d="M677.25,679.25l-125.5,3.5-179.5,17.5-117,16-105,12.5s-91.5,8.5-94,8.5H.25v-6l102-11,130.5-17,82.5-9,128.5-11,96-4Z" transform="translate(-0.25 -64.58)"/><path class="cls-5" d="M438.75,374.75l64.5-3s-116,11.5-117.5,12.5-98.5,14.5-98.5,14.5l-74,13-73.5,13.5s-69,10.5-70.5,11-43.5,5-43.5,5H.25v-24.5l52-7.5,73-7.5,79.5-7.5,68-7,54.5-4.5,48-4.5Z" transform="translate(-0.25 -64.58)"/></g></g></svg>