<svg xmlns="http://www.w3.org/2000/svg" viewBox="0 0 2048 863.12"><defs><style>.cls-1{fill:#0e0010;}</style></defs><title>Слой 2</title><g id="Слой_2" data-name="Слой 2"><g id="Слой_2-2" data-name="Слой 2"><path class="cls-1" d="M2048,863.12v-336l-4.62-10.37-1.88-10.63-1.87-7.12c.52,2-6.13,7.88-7,10-2.67,6.4-3.38,13.49-3.94,20.32-.38,4.59.72,12.21-1.19,16.44l-1.75,3.87s-6.37-8.37-6.87-8.62-8.13-4.38-8.13-4.38-.62,14.25-.62,14.75-1,18.25-1,18.25l-6.5-11.12s-8.25-14.25-9.25-15.25-11.75-10.5-11.88-9.87c-1.21,6.55,1.72,15.09,2.08,21.79.9,16.72-2.08,33.07-2.08,49.7l-6.12-9s-7-8.61-7.38-8.75c-2.12-.72-6.68,26-7,29.13l-1.25,12.37-10.37-18.37L1938,588.37l-3.13-6.87c-3.56,13-6.63,26.13-8.9,39.41-1.08,6.28-2.06,12.62-2.93,18.92-.24,1.73-1.85,7.42-1.17,8.79-5.2-10.31-11.95-19.88-17.37-30.12,0,0-4.37,11.25-4.75,11.75s-4.5,8.5-4.5,8.5l-1.75,8.12s-4-10.25-4-10.75-8.12-15.62-8.12-16-4-6.87-4-6.87a115.67,115.67,0,0,0-11.2,37.84c-1.09,8.5-3.42,18.31-3.42,26.91,0,.5-1,4.62-1,4.62l-4.62-7.87s-6.25-13.13-6.25-13.75v-6.88c-8.32,12.11-19.66,30.11-18.24,45.63.12,1.37.62,10.62.12,9.87s-6.75-12.5-7.12-13-5-7.62-5-7.62-4.75,7.87-4.88,8.25-2.5,7.62-2.62,8.12-3.75,7.63-3.75,7.63c1.44-2.83-2.45-14.44-3.13-18-1.28-6.66-2.72-13.3-4.6-19.82-3.21-11.16-8-21.3-13.52-31.44,0,0-4.5-4.75-4.75-4.13s-2.25,20.75-2.25,20.75l-2.5,18.88s-4.38,16.87-4.75,16.62-3.63-6.25-3.63-6.25l-5.25-4.49c-2.11,7.62-3.21,15.45-4.54,23.24-1.1,6.43-4.21,13.87-4.21,20.38,0,.37-1.87,5.25-1.87,5.25s-4.25-8.63-4.38-9.25-6.62-10.75-6.87-11.13-4.63-5.5-5-4.74c-6,12-4.32,25.76-6.87,38.49l-1.37,6.88s-9.13-10.13-9.13-10.5-6.75-12.88-6.87-13.38-3.75-12.87-3.75-13.25-2.13-12.75-2.26-12.24c-1.74,6.53-7.82,13-11,19-7.3,13.73-13,30.06-16.76,45.16-.12.5-1.87,9.62-2,9.12s-4.5-8.87-4.5-9.87S1669.5,754,1669.5,754l-.62-16.13c.14,3.67-8.79,14.38-10.69,18.54-2.38,5.24-7.44,14-7.44,19.84,0,1.48-1.58,7.7-2.1,7.27-2.62-2.17-2.5-12.22-3.31-15.55a121.49,121.49,0,0,0-11.7-29.46c-2-3.65-7.89-10.92-7.89-15,0,0-2.25-9.75-2.25-8.87,0,7.25-2.74,14.54-3.25,21.78-1.21,17.18-4.93,34-6.12,51l-1.38,6.88s-3.75-7.88-4-8.25-4.87-14.5-4.87-14.5v-1.87c-.41.82-13.66,30.14-11.25,30.74-8-2.61-8.85-28-8.12-34.37l.75-6.5s-9,10.62-9.5,11.12-4.87,13-4.88,13q-5.22-18.21-9.74-36.62l-2.63-12.75-2.88-5.25c-8.1,21.46-15.21,43.06-18.87,65.75l-1,4.87-2.87-8.62L1529,780.62s-2.25-7.75-2.38-6.87A192.5,192.5,0,0,1,1515.25,815l-3,7.75s-4.75-14.61-5.25-16.25A135.14,135.14,0,0,0,1496.2,782c-.87-1.61-10.84-16.15-10.08-17.49a177.92,177.92,0,0,0-18.24,45.37c-.13.5-.75,10.5-.75,10.5s-5-7-5.13-7.62-3.12-9.88-3.12-10.88.5-10.75,0-10.25-10.5,15.5-10.63,16.25-3.75,8.38-4,10.38-1.5,15.62-1.88,15.5c-2.26-1-4.43-8.11-5.73-10.29a98.8,98.8,0,0,0-8.33-12c-1.31-1.6-7.06-6.2-7.06-8.49,0-.38-3.62-8.75-3.63-8.75-5.13,14-8.49,28.59-13.62,42.62,0,0-.25,5.13,0,5.5s-4.62-7.12-4.75-8.37-3.5-13-3.5-13c.5,1.76-2.69,8.45-3.32,10.67-1.31,4.64-2.49,9.34-4.25,13.84-2.56,6.55-7,11.9-11,17.61Z"/><path class="cls-1" d="M0,863.12V511.63c0-1.9,2.73-4.82,3.63-6.47,2.46-4.55,4.69-9.25,7-13.88,4.36-8.81,8.63-17.74,13.28-26.4,2.1-3.9,9-11.4,9.08-15.76a867,867,0,0,0,2.67,100.67c-.39-4.32,7.06-15.36,9.29-19.51,1.71-3.16,3.46-6.53,5.94-9.13.83-.87,6.6-4.23,6.6-5.19,0,6.19-.44,12.44.3,18.61.56,4.57,2.7,9.46,2.7,14,0,.5,4,12.5,4,12.5l7-20.33c5.37-15.59,14.37-29.69,23-43.65,2.8-4.54,5.87-7.3,9.88-10.76,1-.9,7.82-5.4,7.82-6.76v26.67c0,33.05,6.1,67.26,15.66,99,0,0,6.34-14.83,6.34-16.17s8.33-15.83,8.33-15.83c4.21,17.33,7.78,34.8,11.83,52.17,0,0,3.67,9.66,3.67,10.17-.43-4.29,7.42-14.33,9.42-18.43,5.24-10.67,9.62-22.07,15.54-32.36,1-1.72,9.75-12.42,9-13.71,10.7,19.43,11.19,45.93,12.33,67.66,0,0,.84,15.83,1.17,15.33s4.83-10,5.33-11.33,10-26.67,10.17-27.17,1.17-5.16,1.17-5.16c4.05,14.77,10.47,28.21,11.66,43.48-.32-4.07,3.11-10.53,4.24-14.54,4.4-15.63,10.21-30.58,16.26-45.61l2.34-4.67c10.38,30.55,17.25,61.19,19.66,93.34l10.84-18.17,12-17.5.83,11.5v14.5c7.87-14.07,11.95-29.94,15.67-45.5,0,0,5.83,8.67,5.83,9.17s1.67,5.5,1.67,5.5c3.49-10.49,6.95-21,10.88-31.34,3.62-9.5,9.26-18.6,12.45-28.16.17-.5,5.5-10.5,5.5-10.5,0,23.77-.62,49,8,71.33,3.94-9.94,8.06-18.06,15.83-25.33-2.56,2.39-.25,21.74,0,25.44,1.16,16.32,5.34,31.73,10.82,47.06,3.39-12.13,5.78-24.57,14-34.34-1.88,2.23,4.5,21.81,5.16,24.94,2.79,13.2,5,26.51,7.67,39.73l3,11.33S422,723,422.33,722s10.34-16,10.34-16l6.5-6.5a285.18,285.18,0,0,0,17.5,51.5l4.83,10.66s1.17-13,1.17-14.83c0-12.43,3.38-24.83,7.82-36.35,1.81-4.7,3.94-9.21,6.16-13.72.9-1.85,4.35-6.49,4.19-8.57,2.32,30.15,12.42,57.17,23.49,85-.62-1.56,3.62-8.62,4.25-10.15,2.21-5.45,4.51-10.82,7.07-16.13,9.28-19.22,20.88-36.84,32.68-54.55.28,14.45-.27,29,1.07,43.36.62,6.67,1.89,13.21,3,19.8.62,3.53,3.56,11.51,2.39,15-.16.5,2,9.83,2,9.83l6-13.67,5-6.49c2,16.22,6.08,30.71,14.5,44.66-1.05-1.74,4.65-13.51,5.41-15.31,4.16-9.87,9.76-18.51,13.09-28.69-.93,2.85,4.47,13.18,5.55,16.48,2,6.22,4,12.47,5.53,18.83,2.45,10,3.3,20.16,4.59,30.36-.52-4.07,6.66-14.18,8.74-18.05q5.25-9.72,11.42-18.92c6.77-10.12,14.2-18.09,23-26.37-.74,6.94-1.36,13.9-2.17,20.83-1.55,13.47,4.17,25.46,4.17,38.51,0,1.83,4.83,13.83,4.83,13.83l8-7.83L693.67,818c-1.6.87,3.58,22.47,4.35,25,2.16,7.11,6.26,13.54,9.65,20.13Z"/><path class="cls-1" d="M429.36,103.1c1-7.48,12.86-12,18.63-15,.7-.36,5.34,3,6.38,3.5,5.49,2.69,12.68,3.34,17.48-.86S480.7,81.08,482.38,75l3.75-4.63s2.73-2.61,3.61-3.24c2.69-1.93,4.24-5.26,7.16-6.87,1.06-.59,2.27-.86,3.37-1.38a20.28,20.28,0,0,0,5-4c5.48-5.26,12-8.24,18.34-12.22a67.6,67.6,0,0,0,14-11.74c2.14-2.35,3.86-5,5.87-7.4,1.61-1.94,3.44-2.72,5.69-3.92,6.56-3.5,10.71-7.73,14.78-13.83L567.12,0c-.47,10.59-.86,20.83-2.72,31.27a19.84,19.84,0,0,1-1.23,4.7,21,21,0,0,1-2.1,3.41c-5.08,7.14-9.89,14.6-15.89,21C532.79,73.63,516.08,81,504,94.48c-3.57,4-7.91,9-8.83,14.52a10.42,10.42,0,0,0,2.29,8c2.94,3.5,3.16,7.41,2.42,11.81-.21,1.28-.3,4.25-1.76,4.22-.81,0-2.39-2.13-2.8-2.8-.67-1.08-2.35-5.43-3.53-5.68-6.26-1.18-12.51-.83-18.76-2-1.26-.24-4.93-3.77-5.49-3.63l-3.5.88s-5.25,4.37-5.62,4.62c-4.15,2.78-9.42,4-13.78,6.55-4.77,2.72-9.82,4.9-14.62,7.56-4.36,2.42-8.36,6.82-13.09,8.37-7.48,2.47-16.24.45-23.88,2.33-9.4,2.31-18.47,5.59-27.88,7.82l-6.38,3.37c3.08-3.42,6-7.57,9.7-10.27,7.19-5.3,15.32-8.95,22.77-13.8,7.24-4.7,13.75-10.54,20.91-15.4,10.51-7.13,21.2-9.7,33.5-11.4l-5-4.88-7.63-.87A31.49,31.49,0,0,1,429.36,103.1Z"/></g></g></svg>