<svg xmlns="http://www.w3.org/2000/svg" xmlns:xlink="http://www.w3.org/1999/xlink" viewBox="0 0 2048 1505.48"><defs><style>.cls-1{fill:url(#Безымянный_градиент_29);}.cls-2{fill:url(#Безымянный_градиент_29-2);}.cls-3{fill:url(#Безымянный_градиент_29-3);}.cls-4{fill:url(#Безымянный_градиент_29-4);}.cls-5{fill:url(#Безымянный_градиент_29-5);}.cls-6{fill:url(#Безымянный_градиент_29-6);}.cls-7{fill:url(#Безымянный_градиент_29-7);}.cls-8{fill:url(#Безымянный_градиент_29-8);}.cls-9{fill:url(#Безымянный_градиент_29-9);}.cls-10{fill:url(#Безымянный_градиент_29-10);}.cls-11{fill:url(#Безымянный_градиент_29-11);}.cls-12{fill:url(#Безымянный_градиент_29-12);}.cls-13{fill:url(#Безымянный_градиент_29-13);}.cls-14{fill:url(#Безымянный_градиент_27);}.cls-15{fill:#2a002e;}.cls-16,.cls-17{fill:#fff;}.cls-17{stroke:#fff;stroke-miterlimit:10;stroke-width:0.62px;}</style><linearGradient id="Безымянный_градиент_29" x1="151.27" y1="802.22" x2="203.77" y2="711.29" gradientUnits="userSpaceOnUse"><stop offset="0" stop-color="#aa3437"/><stop offset="1" stop-color="#780d30"/></linearGradient><linearGradient id="Безымянный_градиент_29-2" x1="267.15" y1="933.11" x2="310.86" y2="857.39" xlink:href="#Безымянный_градиент_29"/><linearGradient id="Безымянный_градиент_29-3" x1="352.89" y1="1033.43" x2="403.76" y2="945.33" xlink:href="#Безымянный_градиент_29"/><linearGradient id="Безымянный_градиент_29-4" x1="549.96" y1="1069.76" x2="635.08" y2="922.31" xlink:href="#Безымянный_градиент_29"/><linearGradient id="Безымянный_градиент_29-5" x1="682.75" y1="1166.41" x2="732" y2="1081.11" xlink:href="#Безымянный_градиент_29"/><linearGradient id="Безымянный_градиент_29-6" x1="927.03" y1="1066.84" x2="987.41" y2="962.26" xlink:href="#Безымянный_градиент_29"/><linearGradient id="Безымянный_градиент_29-7" x1="2011.08" y1="837.17" x2="2027.19" y2="865.07" xlink:href="#Безымянный_градиент_29"/><linearGradient id="Безымянный_градиент_29-8" x1="1748.25" y1="984.88" x2="1757.32" y2="984.88" xlink:href="#Безымянный_градиент_29"/><linearGradient id="Безымянный_градиент_29-9" x1="1943.99" y1="929.82" x2="1978.48" y2="989.55" xlink:href="#Безымянный_градиент_29"/><linearGradient id="Безымянный_градиент_29-10" x1="1815.74" y1="902.18" x2="1843.14" y2="949.63" xlink:href="#Безымянный_градиент_29"/><linearGradient id="Безымянный_градиент_29-11" x1="1516.24" y1="825.65" x2="1537.81" y2="825.65" xlink:href="#Безымянный_градиент_29"/><linearGradient id="Безымянный_градиент_29-12" x1="1728" y1="957.31" x2="1747.17" y2="990.51" xlink:href="#Безымянный_градиент_29"/><linearGradient id="Безымянный_градиент_29-13" x1="1398.22" y1="863.01" x2="1495.31" y2="1031.18" xlink:href="#Безымянный_градиент_29"/><linearGradient id="Безымянный_градиент_27" x1="1098.82" y1="1105.27" x2="1252.57" y2="1371.57" gradientUnits="userSpaceOnUse"><stop offset="0" stop-color="#aa4337"/><stop offset="1" stop-color="#780d30"/></linearGradient></defs><title>Слой 3</title><g id="Слой_2" data-name="Слой 2"><g id="Слой_3" data-name="Слой 3"><path class="cls-1" d="M187,570l-2.75,13s-6,24-6,25A85.87,85.87,0,0,1,176,619c-.5,1-10.75,16.75-11.25,17.75S155,658,155,659.48s-1.5,16.25-1.5,16.25l-2.5,17.5s-3.75,23.25-4.5,24.75-6.75,28-7.25,29.5-3.75,19.75-3.75,19.75S140,796,140,797s6.25,28,6.25,29.75,9.5,11.25,9.5,12-.5,8.75,0,10,5.5,5,5.75,5.75l11.75,35.25s8.15,21.6,10.42,27.85l-2.42,7.65-4.62,16L158,949.48l-9,5-17.75-7-11.25-7-4.25-12.25s-10.25-16.25-10.25-17-2.75-7.75-2.75-8.5S95.25,886,95.25,886l5.25-10,6-8-3.75-8s-10.5-8.25-11-9-8-9.25-8-9.25L82,825V809.73L83.5,795s6.75-18.25,7.25-20.75S95.5,756,95.5,756l4-14.75-4-18.5s10.25-16.25,11.5-18.25,10.5-18.75,10.75-19.75,3,22.25,3,22.25l3.75,17v-16.5s1.75-27.25,2.25-29.75,2.25-14.5,2.25-14.5l9-18.87,6.87-14L152.25,618l10.62-15.88,13.76-18Z" transform="translate(-0.25)"/><path class="cls-2" d="M316,943.23,322.75,954l-3.25,16L307,976l-19,11.5-10,9-7.5,7.25h-32s-2.75-6-3-7-.25-19.5,0-20.25,3.25-8,3.25-8,3.25-6.25,3.75-7.25-2.5-6.75-2.5-6.75-1.25-9.5-1.25-10.25,5-7.25,5-7.25V913.23c0-.75,9.25,11.75,10.25,12.75s11.5,11,11.5,11l-5.75-16.5L250,900.23,248.25,889s6.5-11,7.25-12,0-21.25,0-21.25v-30s11.25,31,11.25,32.25,8.5,28,8.5,28l8,23.25,9.25,5S301,930,301.75,931,316,943.23,316,943.23Z" transform="translate(-0.25)"/><path class="cls-3" d="M414,1011.48l-11.5,15s-9,8.5-10,8.5-6.75,5.25-7,6-5,9-5,9-16,3.5-17,4-9.42,1-9.42,1l-2.33-2.75-5,2.5S329,1063.23,328,1064s-15.29,7.53-15.74,7.74c.18-.42,6-13.51,6.74-14.74s6-19.25,6.5-21.25,3-15.75,2.75-16.75,4.5-8.5,5.25-8.75,12.5-16.5,12.37-17.5-7.12,4-7.12,4l-10.5,3s4.75-6.25,5.25-7,7-12.25,7.25-14.75,1.25-9.25,1.5-10,6.25-7.25,9-9,12.25-10.75,12.25-10.75l11.75,23.5S384.5,983,385.5,984.48s17,15.5,17,15.5Z" transform="translate(-0.25)"/><path class="cls-4" d="M634,1124.23l-3.75,7.75-4.25,9.5-5,2.75-11-.5-3.5-4-4.25,9.25-4.25,6.75-9.5,4.75-1.75,5L575.5,1164l-19.25-3.5-7.5-8.25-5.25,1.5L526.25,1159H514.5l-8.5-27-5-15.75-6.25-2s-3-11.25-3.5-12S476,1091.23,474,1089s-10.25-9-10.25-9,11.75-19.25,12.5-21.25,10-15,12-16.25-7.25-6.75-7.25-6.75,4.5-4.25,5.25-5.25,6-13.75,7.25-15.5,7.5,9.25,7.75,10.5,8.75,17,8.75,17l-4.25-28S504,1000.23,504,998.73s-9.25-13-9.25-13,4-6.25,4-7,2-13,1.75-13.75,2.75-7.5,4.25-9.25,11-15,12-17.25,3.5-18.5,4-19.25,23.76-43.39,24.48-44.72l0,0v19s.25,33.25,1.5,39.5,1.5,11.5,2.75,14.5,3,12.25,3,12.25l8.25,1.5s2.75,36.5,2.75,37.25,6,33.5,6,33.5l7,23.25,8.25,25s16.75,6.5,17.25,7.5,14.75,14,15.25,15.25S634,1124.23,634,1124.23Z" transform="translate(-0.25)"/><path class="cls-5" d="M741.75,1135.73l-1.5,7.87-6.75,5.63-14.25,9.5-3.5,8.75-28.5,18-20,17.75s-7.5-1.25-8.25-1.75-15.75-8.5-15.75-9.25,8.25-14.75,8.25-14.75l12.25-8.5,5.75,13.25s-2.75-20-2.75-21-.25-21.25,0-22.5,4.25-3.25,4.25-3.25,2.75-7.25,2.75-8-2.75-7.25-2.75-7.25l10.75-19.5L686,1084l8.25,17.5,8.5,12s21,13.75,21.25,14.5S741.75,1135.73,741.75,1135.73Z" transform="translate(-0.25)"/><path class="cls-6" d="M991.75,1160c0,.15.63.22,1.51.24,0,0-10.76,9-11.51,9.26s-9.5,9.25-10.25,9.25-7.25-2-8-2-7.5-1-7.5-1l-4.25,8.5-11.5,4.25L921,1190.73,900.5,1192l.25-32.75L897,1144l-5.75-5.5-6-1.25,8.75-32.5-3.25-5.75,3.25-11.75v-14.75l-17.5-27s-4-28.25-4-29,4.25-26,4.25-26,5.5,20.5,6.25,21.5,9.25,18.75,9.25,18.75-3.75-22.25-3.75-23,.5-12,.5-12-3.25-29.5-3-30.25l13.25-39.75,16.25-47s-2.5,28.5-2.5,30,1.5,31.5,2.5,32.75,6.75,24,6.75,24l5.75-6.75s1.5,11.25,1.5,12.5,1.75,24.75,1.75,26,3.75,20.25,3.75,20.25,2.5,26.75,2.75,28,5.25,13.75,5.25,13.75-1,26.75,0,28.25,14.25,15.5,15.25,16.5,12,16.25,12.5,17.5,12.75,21,12.75,21S991.5,1159.23,991.75,1160Z" transform="translate(-0.25)"/><path class="cls-7" d="M2031,855.23l3.75,9-9,1.25-6,2.5s-4,7-4.5,8-4.5,6.5-4.5,6.5-3.75-2.75-3.75-3.5-4.47-4.9-4.47-4.9l4.72-14.35,3.75-12.5,1.75-20.5,4.25-17.25,3.48-7.75c.22.4,4.78,8.77,5.27,9.5a59.41,59.41,0,0,1,3,8c.25,1.25,1.75,8,1.75,9.75s1,11.5,1,11.5l-2,1.25-.25,4.25Z" transform="translate(-0.25)"/><path class="cls-8" d="M1757.25,986.73c.33,1.16-.54,9.23-1.17,14.55l-2.31,0c.12-2.8-1.35-12.37-1.77-13s-3.75-11.25-3.75-11.25l.25-8.5,1.5,2.5S1756.75,985,1757.25,986.73Z" transform="translate(-0.25)"/><path class="cls-9" d="M1991.25,940,1986,951l-2.25,8-8.5,7.25s-8.5,10.75-10,12-4.5,7.5-4.5,7.5l-2,7.75,6.5-2.75-2,11.25-6.5,13.75-6.5,6.75-2.25-4.75-4.25-6.66-5,1.91-8.25,3v-5.25l-8.22-4.58,2-5.92s1-12,1.75-11.75,13.25-10.5,13.25-10.5l4.25-24.25,3.75-26.25,4.5-21,8.75-11,2.5-18,7.75-15.25.75,17.25,1,10.5-3.5,8.75,1.25,4.75,4-4.75,2.75,3.5.75,11-4.25,4.25V925c0,.75-1.25,6-1.25,7s.5,5.5.5,5.5l3,21L1981,953Z" transform="translate(-0.25)"/><path class="cls-10" d="M1855.5,961.48,1854,956l-10-17.75-8.75-16.5v22l-4,12s1.5,13.5,1.75,14.25,2.25,15,2.25,15l-4.25,3.75-6.5,8.25-3.25,11.25s-3.25-10.75-3.25-11.5-6.75-16.5-7.25-17.25-10-14.85-10-14.85c.71-3.81,1.3-6.9,1.3-6.9l8.5-24.25v-14l6-7.5s-.25-41.5,0-42.5-.5-22.5-.5-22.5l-2.25-18.75.75-8,5.75-6.75s4.5,13,4.75,13.75,5,13.5,5,13.5l6.25,8.75s-2.75,16-2.75,17-1.25,17.75-1.25,17.75l6.25-20,6,15.5-2.25,14.75-1,16,6.75,6.75,1.25,9s2,12.25,2.25,13S1855.5,961.48,1855.5,961.48Z" transform="translate(-0.25)"/><path class="cls-11" d="M1537.25,807.48c.75.75.75,14.25,0,15.75s-3.94,26-5.34,27.75-5.66,19.75-5.91,18.25-4.75-17.25-4.75-17.25-4.75-11-5-12,2.75-23.75,3.25-26.75,4.75-26,4.75-26L1526,782S1536.5,806.73,1537.25,807.48Z" transform="translate(-0.25)"/><path class="cls-12" d="M1756.08,1001.28c-.32,2.71-.58,4.7-.58,4.7l-4,16.25L1740.25,1007l-5-4.25-6.75,3s-6.25-9.75-6.75-10.5-4-11-4-11,2-14.75,2-15.75,4.5-20.5,4-22,0-29.5,0-29.5l1.71-12.75s1.56,5.06,2.73,9v0l1.27,10.18,6,13s5.75,14.25,6.75,14.75,0,11.5,0,11.5,1.25,11.75,1.75,13,5,12.75,5.5,13.75,3,12,4,12.5c.16.08.25-.21.27-.75Z" transform="translate(-0.25)"/><path class="cls-13" d="M1459.26,1026.24c.24.57,8,18.76,8,20s-1.75,10.5-2.5,13.5-5,12.5-5,12.5-14.75,11.25-16.25,11.25-1.75-3.5-1.75-3.5l3.75-10.25-10.25,5.25-8.75,8.75-9.5,7.75-10.25,7.77,1,10s-7.5,4.5-8.25,4.75-6.75,10.75-6.75,10.75l-2.75,11.75-6.5-4.75-10.25-11.25s-9.75-9.75-10.25-11-13.45-10.23-13.45-10.23l9.2-17.77L1370,1064l22.75-12.75,23-8.25,12-7.75,5.5-12.25v-11.5l8.5-9.25,7.75-12,4-13.75v-9l3.5-12.25s4.25-8,4.75-9S1465,937,1465,937l-1.25-11.5-1.75-9-1.25-10.25-1.25-9-1.25-6s2.75-5.75,3.25-7,4.75-8.75,4.75-8.75l-1.5-10.75V856s1-4.5,1.5-7.25,5.5-10.75,5.75-12,1.75-10.5,1.75-10.5l2-10v-35s-3.25-8.75-3.5-9.75-1.75-8.25-1.75-8.25l-3.75-20.75-.75-15s-3.25-15.75-3.25-16.75-1-14.75-1.25-17.75-2.25-13.25-2.25-13.25-2-10.75-2.5-13.5-1.5-16.5-1.5-16.5l-1-4L1462,659l13.75,19.5s8.75,13.25,9.5,14.75,1,18,1,19,12.5,19,12.5,19,1.25,12.5,1.25,14.25V771l15.25,12.5-2.5,31.75V831c0,1,.25,18.75.25,18.75s1.5,12.75,2,14.5,2.25,26.75,2.25,26.75,10.25,19.25,11.75,21.5,4.5,15.25,4.5,16.75,6.25,17.75,6.25,18.5,3.75,10.6,4,11.22l-2.49-4.47s-12-16.25-12.25-17.25-10.25-9.75-10.25-9.75l.25,4.25,2.5,17.25-8.5,17.25,3.75,6,1.25,9-4.75,3s-1.5,12-1.75,13.5-2.5,11.5-4,15.25,0,9,0,9l-10,8-5.25,3s-4.25,8.25-4.25,9-3.25,9.25-3.25,9.25l-6.5,3.75a58.83,58.83,0,0,1-1.75-5.75c-.25-1.5-4.5-9-4.5-9Z" transform="translate(-0.25)"/><path class="cls-14" d="M1278,1115l4,21.75-9.75-5.25v25.25s-6,7.5-7.75,8.25,0,7.75,0,7.75l-2,6.25-4.5,7-.25,7.5,1.75,10-10-.75-4.5,6.5-5,8-5.25-9.5-11-6.25-7-1.25,5.75,9.25s1.5,10.75,1.25,11,0,13.25,0,13.25l-7.25,2.25-13.25,2.75-8.5,6.75s-13.75,0-14.75-.5-8.75-.5-8.75-.5l-8.5,12.25-11.5,3-6.75,10.75s-6.75,12.25-7.25,13.75-8.75,10.25-8.75,10.25l-2.25-7-4-9.5-3.25-17.25-7-8.5v5.5l-4.5,11.75-8.25,9.75-6.75,8.25s-3-2.25-3-3-5.75-15-5.75-15-8.5-6.25-9.25-7-4.75-8.75-5-10.25-9.75,14.25-10.75,15-20,.75-21.25.75-25.5,4-26.75,4.25S999,1274,999,1274v-4s4-6,5.25-7,5.5-9,5.5-9h14.5c3.25,0,22.75-2.5,22.75-2.5s-34-6.75-36-7.25-23.5-6.25-23.5-6.25l-10.5-7.5-2.5-25.75,24-14.5,18.75-23L1033.5,1143l12.25,5.25,22.25,6.5,24.5,4.5,16,4,7.75-7s10.25,2,11.25,2.5,17.25-.5,17.25-.5l30-1.25,22.5-1.5L1204,1145l14-12,9.75-16.5,11.5-10,9.75-10,4.75-13.5,7.25-12.75,8.75-10.5L1272,1067l2,10.5,4.25,10.75-1.25,3.25-3.5,6Z" transform="translate(-0.25)"/><path class="cls-15" d="M312.26,1071.72c.45-.21,14.76-7,15.74-7.74s18.75-9.25,18.75-9.25l5-2.5,2.33,2.75s8.42-.5,9.42-1,17-4,17-4,4.75-8.25,5-9,6-6,7-6,10-8.5,10-8.5l11.5-15s15-18.75,15.25-19.5,18.25-12.5,18.25-12.5l12.75-12L466.5,955l16-10.25L502,927s12.5-15.75,13-17,11.75-12.5,12-13.25,17.55-21.42,18.23-22.22c-.72,1.33-24,44-24.48,44.72s-3,17-4,19.25-10.5,15.5-12,17.25-4.5,8.5-4.25,9.25-1.75,13-1.75,13.75-4,7-4,7,9.25,11.5,9.25,13,1.75,15.75,1.75,15.75l4.25,28s-8.5-15.75-8.75-17-6.5-12.25-7.75-10.5-6.5,14.5-7.25,15.5-5.25,5.25-5.25,5.25,9.25,5.5,7.25,6.75-11.25,14.25-12,16.25-12.5,21.25-12.5,21.25,8.25,6.75,10.25,9,16.75,12.5,17.25,13.25,3.5,12,3.5,12l6.25,2,5,15.75,8.5,27h11.75l17.25-5.25,5.25-1.5,7.5,8.25,19.25,3.5,11.25,1.5,1.75-5,9.5-4.75,4.25-6.75,4.25-9.25,3.5,4,11,.5,5-2.75,4.25-9.5,3.75-7.75L646.25,1138l6.25-12.5,15.25-19L686,1084l-4.25,16.75L671,1120.23s2.75,6.5,2.75,7.25-2.75,8-2.75,8-4,2-4.25,3.25,0,21.5,0,22.5,2.75,21,2.75,21L663.75,1169l-12.25,8.5s-8.25,14-8.25,14.75,15,8.75,15.75,9.25,8.25,1.75,8.25,1.75l20-17.75,28.5-18,3.5-8.75,14.25-9.5,6.75-5.63,1.5-7.87,9.5-11.25s12-6.25,13-6.75,19.25-7.5,19.25-7.5l24.75-6.75s15-30.25,15-31,3.5-17,3.5-17l7.75-5.5,9.25-13.5,15.5-41,5-22,4-20.25L883.75,935s5.5-9.75,5.75-11,6.25-16.75,6.25-16.75L906.5,892l9-13.25-16.25,47L886,965.48c-.25.75,3,30.25,3,30.25s-.5,11.25-.5,12,3.75,23,3.75,23S883.75,1013,883,1012s-6.25-21.5-6.25-21.5-4.25,25.25-4.25,26,4,29,4,29l17.5,27v14.75L890.75,1099l3.25,5.75-8.75,32.5,6,1.25L897,1144l3.75,15.25L900.5,1192l20.5-1.25,19.25-2.25,11.5-4.25,4.25-8.5s6.75,1,7.5,1,7.25,2,8,2,9.5-9,10.25-9.25,11.51-9.26,11.51-9.26c3.43,0,11.49-.74,11.49-.74s15-5.75,15.75-5.75,13-10.75,13-10.75l-16.25,24.25-18.75,23-24,14.5,2.5,25.75,10.5,7.5s21.5,5.75,23.5,6.25,36,7.25,36,7.25-19.5,2.5-22.75,2.5h-14.5s-4.25,8-5.5,9-5.25,7-5.25,7v4s10.5-1.5,11.75-1.75,25.5-4.25,26.75-4.25,20.25,0,21.25-.75,10.5-16.5,10.75-15,4.25,9.5,5,10.25,9.25,7,9.25,7,5.75,14.25,5.75,15,3,3,3,3l6.75-8.25,8.25-9.75,4.5-11.75v-5.5l7,8.5,3.25,17.25,4,9.5,2.25,7s8.25-8.75,8.75-10.25,7.25-13.75,7.25-13.75l6.75-10.75,11.5-3,8.5-12.25s7.75,0,8.75.5,14.75.5,14.75.5l8.5-6.75,13.25-2.75,7.25-2.25s-.25-13,0-13.25-1.25-11-1.25-11l-5.75-9.25,7,1.25,11,6.25,5.25,9.5,5-8,4.5-6.5,10,.75-1.75-10,.25-7.5,4.5-7,2-6.25s-1.75-7,0-7.75,7.75-8.25,7.75-8.25v-25.25l9.75,5.25-4-21.75-4.5-17.5,3.5-6,1.25-3.25-4.25-10.75-2-10.5-2.25-7.25s11.25,9.75,12,10.75,15,10.75,15,10.75,12.75,7.25,12.75,9.25,8.5,13,8.5,13,10.25-.25,12,.25,13,2.25,13,2.25l5-3.75,1.55-3s13,9,13.45,10.23,10.25,11,10.25,11l10.25,11.25,6.5,4.75,2.75-11.75s6-10.5,6.75-10.75,8.25-4.75,8.25-4.75l-1-10,10.25-7.77,9.5-7.75,8.75-8.75,10.25-5.25-3.75,10.25s.25,3.5,1.75,3.5,16.25-11.25,16.25-11.25,4.25-9.5,5-12.5,2.5-12.25,2.5-13.5-7.75-19.42-8-20l12.74,14s4.25,7.5,4.5,9a58.83,58.83,0,0,0,1.75,5.75l6.5-3.75s3.25-8.5,3.25-9.25,4.25-9,4.25-9l5.25-3,10-8s-1.5-5.25,0-9,3.75-13.75,4-15.25,1.75-13.5,1.75-13.5l4.75-3-1.25-9-3.75-6,8.5-17.25-2.5-17.25-.25-4.25s10,8.75,10.25,9.75,12.25,17.25,12.25,17.25l2.49,4.47c-.24-.62-4-10.49-4-11.22s-6.25-17-6.25-18.5-3-14.5-4.5-16.75-11.75-21.5-11.75-21.5-1.75-25-2.25-26.75-2-14.5-2-14.5-.25-17.75-.25-18.75V815.23l2.5-31.75L1500,771v-25.5c0-1.75-1.25-14.25-1.25-14.25s-12.5-18-12.5-19-.25-17.5-1-19-9.5-14.75-9.5-14.75L1462,659l-7.75-13.25s22.5,17.75,23,18.75,14.75,9.75,16.5,12.75,10,12,11,15.25,8,12.5,8.5,14.5,5,13.75,5,13.75,9.75,12,10.5,13.25,8.25,5.75,8.25,5.75l5.75,3.75s6.5-9.25,7-10A38.22,38.22,0,0,1,1554,730s7.5,8.5,8.5,10.5,9.5,12.25,11.75,14.75,9,12.25,9,12.25,13.5,23,13.5,24,5.25,16,6.25,19,8.75,24.25,8.75,26.25,11,23.25,11,24.25,10.75,8,10.75,8,14.75,7.25,15.5,8.25,9.25,11.5,9.25,11.5l9,17s20,27.5,22.75,33.25,9.5,16.25,11,19.25,16.75,26,16.75,26,3.5,10.25,4,11,6.75,10.5,6.75,10.5l6.75-3,5,4.25,11.25,15.25,4-16.25s.26-2,.58-4.7c.63-5.32,1.5-13.39,1.17-14.55C1756.75,985,1750,971,1750,971l-1.5-2.5-.25,8.5s3.25,10.5,3.75,11.25,1.89,10.2,1.77,13c0,.54-.11.83-.27.75-1-.5-3.5-11.5-4-12.5s-5-12.5-5.5-13.75-1.75-13-1.75-13,1-11,0-11.5-6.75-14.75-6.75-14.75l-6-13-1.27-10.18c.71,2.39,1.27,4.4,1.27,4.68,0,.75,19.25,32.25,19.25,32.25l20.25,22s19.25,13.5,19.75,14.75,5.5-1.25,5.5-1.25,4-5.75,4-7c0-.76,1.37-8.27,2.45-14.1,0,0,9.55,14.1,10,14.85S1818,996,1818,996.73s3.25,11.5,3.25,11.5L1824.5,997l6.5-8.25,4.25-3.75s-2-14.25-2.25-15-1.75-14.25-1.75-14.25l4-12v-22l8.75,16.5L1854,956l1.5,5.5s-3.75-21.5-4-22.25-2.25-13-2.25-13l-1.25-9-6.75-6.75,1-16,2.25-14.75-6-15.5-6.25,20s1.25-16.75,1.25-17.75,2.75-17,2.75-17l-6.25-8.75s-4.75-12.75-5-13.5-4.75-13.75-4.75-13.75l3.5-5,13.75,17.75,9.25,24.75,12.5,22.25s6.25,22.75,6.25,24.5,6.25,19.5,6.25,19.5,7,32.75,7,34,5.25,9.5,5.25,9.5l10,11,5.25,17.75s3.75,8,4,8.75,9.25,6,9.75,7,8.25,4,8.25,4l1-3.08,8.22,4.58V1016l8.25-3,5-1.91,4.25,6.66,2.25,4.75,6.5-6.75,6.5-13.75,2-11.25-6.5,2.75,2-7.75s3-6.25,4.5-7.5,10-12,10-12l8.5-7.25,2.25-8,5.25-11L1981,953l-5.25,5.5-3-21s-.5-4.5-.5-5.5,1.25-6.25,1.25-7v-7.5l4.25-4.25-.75-11-2.75-3.5-4,4.75-1.25-4.75,3.5-8.75-1-10.5-.75-17.25,8,15.5,6.5,11,6.75-5,9.25-5.75,1.28-3.9s4.47,4.15,4.47,4.9,3.75,3.5,3.75,3.5,4-5.5,4.5-6.5,4.5-8,4.5-8l6-2.5,9-1.25-3.75-9-1.75-9.25.25-4.25,2-1.25s-1-9.75-1-11.5-1.5-8.5-1.75-9.75a59.41,59.41,0,0,0-3-8c-.49-.73-5-9.1-5.27-9.5h0l2-4.49,8-1s3-10.25,3-12v-17l4.5-17.5,4.5-8.5,5.75-16.25v780.5H.25V793L18,759.48l3.75-4.75H26L29,750l1.5-7.25,3.75-5.5,26-37.25L71.5,689.23l12-12.5,11.25-13.5,13-16.5,12.5-16.25L137,613.23l11-10.75,18.75-16.75L187,570,176.63,584.1l-13.76,18L152.25,618l-7.38,12.38-6.87,14-9,18.87s-1.75,12-2.25,14.5-2.25,29.75-2.25,29.75V724l-3.75-17s-2.75-23.25-3-22.25-9.5,17.75-10.75,19.75-11.5,18.25-11.5,18.25l4,18.5L95.5,756s-4.25,15.75-4.75,18.25S83.5,795,83.5,795L82,809.73V825l1.75,16.75s7.5,8.5,8,9.25,11,9,11,9l3.75,8-6,8-5.25,10s7.5,16,7.5,16.75,2.75,7.75,2.75,8.5,10.25,17,10.25,17L120,940.48l11.25,7,17.75,7,9-5,18.63-8.25,4.62-16,2.42-7.65c.34.93.55,1.52.58,1.65.25,1,10.5,24.25,10.5,24.25s17.75-5.5,18.5-6.5,8-12.75,8-13.75,2.75-17.75,3.25-18.5S231.25,887,231.25,887l8-13.5,3.5-11.25L246.5,851s5.25-11.75,5.5-12.5,3.5-12.75,3.5-12.75v30s.75,20.25,0,21.25-7.25,12-7.25,12L250,900.23l9.75,20.25L265.5,937S255,927,254,926s-10.25-13.5-10.25-12.75V937s-5,6.5-5,7.25S240,954.48,240,954.48s3,5.75,2.5,6.75-3.75,7.25-3.75,7.25-3,7.25-3.25,8-.25,19.25,0,20.25,3,7,3,7h32l7.5-7.25,10-9L307,976l12.5-6,3.25-16,16.75-3.5,24-2.25s-9.5,9-12.25,10.75-8.75,8.25-9,9-1.25,7.5-1.5,10-6.75,14-7.25,14.75-5.25,7-5.25,7l10.5-3s7-5,7.12-4-11.62,17.25-12.37,17.5-5.5,7.75-5.25,8.75-2.25,14.75-2.75,16.75-5.75,20-6.5,21.25S312.44,1071.3,312.26,1071.72Zm1225-248.49c.75-1.5.75-15,0-15.75S1526,782,1526,782l-1.75,5.25s-4.25,23-4.75,26S1516,839,1516.25,840s5,12,5,12,4.5,15.75,4.75,17.25,4.5-16.5,5.91-18.25S1536.5,824.73,1537.25,823.23Z" transform="translate(-0.25)"/><circle class="cls-16" cx="193.96" cy="103.61" r="3.96"/><circle class="cls-16" cx="345.96" cy="221.61" r="3.96"/><circle class="cls-16" cx="414.87" cy="390.48" r="3.96"/><circle class="cls-17" cx="500.27" cy="303.21" r="1.23"/><circle class="cls-16" cx="492.61" cy="189.96" r="1.48"/><circle class="cls-16" cx="610.52" cy="161.05" r="2.52"/><circle class="cls-16" cx="646.58" cy="342.98" r="2.58"/><circle class="cls-16" cx="1302.02" cy="49.82" r="3.96"/><circle class="cls-16" cx="1330.21" cy="157.63" r="1.15"/><circle class="cls-16" cx="1409.04" cy="97.68" r="1.98"/><circle class="cls-16" cx="1454.06" cy="19.75" r="1.98"/><circle class="cls-16" cx="1924.04" cy="348.77" r="3.96"/><circle class="cls-16" cx="1818.06" cy="148.88" r="1.98"/><circle class="cls-16" cx="1941.06" cy="66.88" r="1.98"/><circle class="cls-16" cx="1937.11" cy="160.75" r="1.98"/><circle class="cls-16" cx="1773.09" cy="35.77" r="3.96"/><circle class="cls-16" cx="1620.11" cy="189.75" r="1.98"/><circle class="cls-16" cx="1988.41" cy="2.77" r="2.77"/><circle class="cls-16" cx="1769.13" cy="389.77" r="3.96"/><circle class="cls-16" cx="481.28" cy="9.43" r="1.98"/><circle class="cls-16" cx="1018.51" cy="126.05" r="2.62"/><circle class="cls-16" cx="983.27" cy="62.32" r="3.96"/><circle class="cls-16" cx="1084.54" cy="65.02" r="1.98"/></g></g></svg>